<?xml version="1.0" encoding="UTF-8" ?>
<!DOCTYPE svg PUBLIC "-//W3C//DTD SVG 1.1//EN" "http://www.w3.org/Graphics/SVG/1.1/DTD/svg11.dtd">
<svg width="641pt" height="642pt" viewBox="0 0 641 642" version="1.1" xmlns="http://www.w3.org/2000/svg">
<g id="#461220ff">
<path fill="#461220" opacity="1.00" d=" M 263.63 65.67 C 288.97 60.19 315.02 58.97 340.87 60.26 C 385.57 65.13 430.35 75.92 469.70 98.28 C 480.87 104.91 492.09 111.57 502.28 119.67 C 515.38 129.84 529.26 139.17 540.63 151.36 C 557.15 169.61 571.53 189.78 583.91 211.05 C 617.92 268.89 632.44 338.10 623.72 404.69 C 617.88 444.67 605.02 483.74 584.81 518.80 C 571.39 541.66 555.73 563.66 535.08 580.57 C 524.63 572.54 516.34 562.21 506.62 553.39 C 498.68 546.54 491.94 538.50 484.66 530.99 C 491.04 518.79 501.75 509.81 509.73 498.76 C 565.97 418.15 563.10 301.61 503.44 223.59 C 481.37 194.16 451.15 171.52 417.96 156.05 C 389.45 143.22 358.40 135.34 327.01 135.91 C 270.49 133.42 213.02 153.10 170.43 190.46 C 156.96 203.31 143.11 216.03 132.39 231.37 C 107.06 266.35 93.12 308.99 90.87 351.99 C 86.67 402.97 102.35 454.33 130.25 496.78 C 138.79 509.04 152.45 517.94 157.79 532.23 C 147.59 541.54 138.00 551.47 128.29 561.28 C 121.75 567.76 116.91 575.97 109.32 581.35 C 105.19 583.43 102.41 577.28 99.39 575.63 C 64.01 537.28 36.78 490.78 23.99 440.01 C 18.53 419.43 16.71 398.13 15.29 376.96 C 11.82 301.69 38.55 226.20 86.02 168.03 C 101.23 150.24 118.15 133.62 137.78 120.74 C 174.93 93.33 218.09 73.82 263.63 65.67 Z" />
<path fill="#461220" opacity="1.00" d=" M 316.43 307.52 C 338.53 305.70 362.46 318.35 370.25 339.79 C 373.86 349.97 377.68 361.32 374.28 372.14 C 370.86 387.20 362.16 401.87 348.01 409.00 C 330.30 419.74 306.55 418.02 289.83 406.13 C 271.10 393.80 262.57 368.40 269.16 347.14 C 271.93 337.19 277.91 328.39 284.85 320.89 C 293.87 313.63 304.74 308.42 316.43 307.52 Z" />
</g>
<g id="#8c2f39fb">
<path fill="#8c2f39" opacity="1.00" d=" M 264.10 191.19 C 290.62 183.74 318.55 180.82 345.97 184.04 C 395.05 191.57 442.41 218.04 469.97 260.02 C 489.41 288.87 502.40 322.93 502.92 357.99 C 504.48 390.12 496.88 422.54 481.99 450.99 C 474.00 466.41 462.54 479.64 450.94 492.42 C 435.00 480.41 420.81 466.30 405.86 453.12 C 402.12 449.46 394.52 443.68 400.38 438.35 C 413.68 422.23 424.28 403.48 427.52 382.56 C 433.58 348.56 422.42 311.64 397.35 287.66 C 362.22 250.86 300.17 247.35 259.04 276.05 C 232.09 293.89 214.52 325.10 213.47 357.44 C 211.14 378.56 216.54 400.18 228.01 418.00 C 233.06 426.28 239.70 433.40 245.43 441.19 C 236.80 451.27 226.96 460.21 217.85 469.84 C 210.40 478.50 203.08 487.43 194.10 494.58 C 173.79 475.65 157.46 452.01 148.50 425.63 C 138.44 394.74 134.19 361.15 141.30 329.15 C 147.15 299.21 161.19 271.08 180.73 247.75 C 202.40 221.48 231.95 202.09 264.10 191.19 Z" />
</g>
</svg>
