<?xml version="1.0" encoding="UTF-8" ?>
<!DOCTYPE svg PUBLIC "-//W3C//DTD SVG 1.1//EN" "http://www.w3.org/Graphics/SVG/1.1/DTD/svg11.dtd">
<svg width="1521pt" height="988pt" viewBox="0 0 1521 988" version="1.1" xmlns="http://www.w3.org/2000/svg">
<g id="#461220ff">
<path fill="#461220" opacity="1.00" d=" M 609.70 68.60 C 662.47 34.44 726.10 18.52 788.69 20.25 C 828.94 23.97 869.31 32.59 906.00 50.01 C 929.18 60.56 950.01 75.44 970.15 90.87 C 980.53 99.04 990.90 107.43 999.32 117.70 C 1034.37 159.40 1061.93 208.56 1072.55 262.41 C 1089.38 334.44 1075.82 411.80 1040.18 476.12 C 1028.12 497.28 1014.13 517.57 996.36 534.37 C 993.74 536.66 991.08 540.20 987.18 539.93 C 977.47 533.06 970.56 523.13 961.68 515.33 C 953.23 507.97 945.86 499.55 938.04 491.59 C 941.92 483.43 947.98 476.64 954.03 470.03 C 964.22 459.74 970.94 446.73 978.22 434.36 C 991.56 408.17 1000.07 379.40 1002.21 350.05 C 1008.61 292.18 992.66 231.92 957.81 185.19 C 924.23 140.51 873.05 110.17 818.38 99.66 C 749.45 87.05 674.06 105.17 621.81 152.80 C 609.22 165.22 596.01 177.26 585.82 191.82 C 548.70 243.70 536.05 311.35 548.44 373.59 C 555.44 404.88 567.94 435.22 586.86 461.22 C 595.57 470.75 603.88 480.64 611.44 491.12 C 599.49 505.57 584.51 517.19 572.94 531.96 C 570.04 535.40 567.09 538.85 563.56 541.68 C 558.24 543.17 555.45 537.71 551.99 535.02 C 525.03 505.74 503.13 471.65 488.44 434.62 C 473.65 398.69 468.93 359.57 468.15 321.00 C 468.88 294.63 473.07 268.41 479.81 242.92 C 486.63 217.80 497.63 194.06 510.21 171.35 C 520.21 153.03 533.16 136.51 546.58 120.61 C 564.39 99.67 587.00 83.74 609.70 68.60 Z" />
<path fill="#461220" opacity="1.00" d=" M 765.44 268.58 C 789.18 263.93 814.79 277.76 823.75 300.20 C 836.82 326.06 823.59 360.79 796.96 371.89 C 774.39 383.03 745.28 374.25 730.57 354.42 C 725.37 346.96 722.26 338.23 720.63 329.34 C 717.87 312.26 726.07 295.58 736.92 282.91 C 744.95 275.76 754.67 270.20 765.44 268.58 Z" />
</g>
<g id="#8c2f39fd">
<path fill="#8c2f39" opacity="1.00" d=" M 761.67 143.64 C 827.50 138.25 896.04 172.14 929.40 229.62 C 944.70 255.11 954.82 284.12 956.29 313.95 C 958.65 345.12 951.91 376.65 938.90 404.95 C 930.65 423.05 917.59 438.29 904.58 453.11 C 895.51 446.38 887.06 438.88 878.76 431.24 C 869.07 422.20 858.36 414.02 850.58 403.14 C 862.93 387.95 874.39 371.35 879.01 352.01 C 885.46 329.97 883.15 306.19 875.17 284.87 C 860.52 246.78 822.32 218.11 781.02 217.96 C 741.45 214.80 700.81 235.43 681.14 270.09 C 667.16 293.13 664.01 321.41 668.40 347.65 C 672.56 364.29 681.00 379.84 692.17 392.82 C 694.54 395.69 696.73 398.73 698.68 401.91 C 687.97 414.74 674.85 425.33 664.36 438.35 C 659.16 444.45 653.51 450.18 647.34 455.30 C 624.96 433.45 607.10 406.43 598.83 376.07 C 593.69 356.19 590.53 335.61 591.23 315.04 C 593.56 283.53 603.35 252.32 620.97 225.98 C 638.90 198.90 663.63 176.13 692.98 161.97 C 713.97 150.31 738.06 146.10 761.67 143.64 Z" />
<path fill="#8c2f39" opacity="1.00" d=" M 725.94 452.10 C 757.71 451.36 789.45 451.10 821.22 452.08 C 820.36 464.38 818.68 476.62 818.97 488.99 C 819.09 589.00 818.88 689.02 819.06 789.03 C 818.21 796.79 823.20 803.45 828.49 808.49 C 837.12 816.89 846.63 824.33 855.24 832.76 C 864.50 841.82 873.38 851.29 883.06 859.93 C 886.45 863.12 891.18 866.44 889.85 872.00 C 890.44 892.54 889.99 913.12 889.73 933.68 C 871.14 934.12 852.56 934.10 833.98 934.11 C 828.73 933.60 822.75 935.01 818.10 931.87 C 808.56 924.77 802.18 914.50 793.72 906.28 C 782.26 895.04 772.30 882.39 760.77 871.23 C 751.17 861.48 740.73 852.36 733.06 840.93 C 730.41 837.22 731.49 832.22 730.98 828.03 C 730.99 716.35 731.03 604.67 730.99 492.99 C 731.22 479.17 728.41 465.61 725.94 452.10 Z" />
<path fill="#8c2f39" opacity="1.00" d=" M 55.63 460.08 C 120.77 459.90 185.92 460.05 251.06 459.96 C 254.28 459.75 256.98 461.64 259.32 463.63 C 279.69 480.17 296.41 500.62 316.25 517.74 C 326.05 526.25 335.14 535.52 344.35 544.66 C 347.41 547.64 350.85 551.17 349.81 556.00 C 350.87 596.66 351.28 637.32 351.00 678.00 C 351.71 727.36 348.54 776.70 350.60 826.06 C 350.68 832.21 351.16 839.51 345.99 843.99 C 326.22 865.52 304.49 885.15 283.60 905.59 C 273.92 913.91 266.32 924.31 256.62 932.60 C 251.49 937.72 243.43 935.27 237.02 936.10 C 176.59 935.85 116.16 936.13 55.73 935.94 C 58.24 924.38 62.18 912.99 61.93 901.02 C 62.15 807.68 61.87 714.32 62.07 620.98 C 62.72 608.62 58.35 596.92 55.64 585.08 C 87.16 584.91 118.67 585.00 150.19 585.00 C 152.41 596.92 150.93 609.03 151.81 621.04 C 153.98 650.31 152.67 679.68 153.00 709.00 C 153.33 753.66 152.53 798.33 152.95 842.98 C 173.58 842.59 194.34 844.20 214.90 841.83 C 228.25 841.54 234.76 828.46 244.36 821.38 C 253.78 814.95 260.68 804.79 259.80 792.98 C 260.32 731.32 259.82 669.64 260.04 607.98 C 260.82 595.67 256.63 582.95 247.79 574.22 C 238.26 564.54 228.14 553.28 213.88 551.40 C 161.23 549.75 108.47 552.63 55.85 549.95 C 58.67 537.45 61.93 524.92 61.96 512.02 C 61.90 500.32 63.40 488.31 60.18 476.89 C 58.79 471.24 57.10 465.70 55.63 460.08 Z" />
<path fill="#8c2f39" opacity="1.00" d=" M 478.74 587.86 C 485.40 586.67 492.24 587.01 498.99 586.88 C 537.34 587.17 575.70 586.87 614.05 586.97 C 624.27 585.49 630.33 595.25 636.48 601.55 C 655.46 621.55 675.38 640.64 694.83 660.19 C 696.82 662.29 698.66 664.73 697.78 668.02 C 698.45 684.67 697.89 701.35 698.14 718.01 C 697.64 723.62 699.62 730.49 694.86 734.88 C 687.47 744.08 678.41 751.76 670.23 760.23 C 655.00 775.03 641.92 791.91 626.17 806.18 C 622.93 810.04 617.34 808.39 613.03 809.04 C 580.02 809.07 547.01 808.97 514.01 808.98 C 512.03 777.46 513.72 745.87 512.25 714.33 C 537.49 713.41 562.76 714.58 588.01 713.85 C 591.77 713.62 594.93 711.06 597.59 708.62 C 604.68 701.59 609.76 692.90 614.46 684.19 C 579.29 683.84 544.12 683.99 508.95 683.98 C 501.38 683.04 495.01 688.00 489.69 692.65 C 485.89 696.11 481.16 700.13 482.18 706.01 C 481.55 737.66 482.32 769.34 481.87 801.01 C 482.74 807.66 479.63 816.28 485.79 821.20 C 492.60 827.53 498.08 836.04 506.45 840.40 C 552.92 841.91 599.49 840.52 646.00 841.01 C 663.13 841.50 680.51 839.53 697.52 842.22 C 698.95 872.68 696.54 903.25 699.64 933.64 C 627.75 934.49 555.85 933.72 483.96 934.06 C 476.05 935.78 470.95 928.75 465.91 924.09 C 452.51 911.12 440.56 896.77 427.75 883.25 C 416.92 871.72 403.28 862.93 393.92 850.04 C 389.70 844.71 391.57 837.24 390.90 831.02 C 391.19 781.00 390.79 730.97 391.07 680.96 C 390.16 675.42 393.60 670.87 397.21 667.23 C 419.86 644.21 443.44 622.07 465.24 598.23 C 469.32 594.32 473.44 590.05 478.74 587.86 Z" />
<path fill="#8c2f39" opacity="1.00" d=" M 866.30 589.38 C 898.41 588.70 930.55 588.82 962.68 589.32 C 963.43 639.55 962.80 689.80 962.94 740.03 C 963.01 745.84 962.73 752.46 966.82 757.16 C 973.81 763.58 981.98 768.59 988.99 775.01 C 999.58 784.03 1007.24 795.73 1016.11 806.30 C 1027.26 797.11 1036.69 786.05 1047.76 776.76 C 1056.17 769.46 1064.63 761.53 1069.20 751.15 C 1072.64 741.88 1071.79 731.69 1072.10 722.01 C 1071.85 688.66 1072.12 655.32 1072.01 621.98 C 1072.47 610.71 1069.27 599.89 1066.71 589.07 C 1099.26 588.95 1131.81 588.94 1164.37 589.07 C 1161.09 600.08 1157.56 611.14 1156.63 622.67 C 1155.19 642.75 1156.15 662.89 1156.84 682.99 C 1157.30 710.66 1157.08 738.34 1156.28 766.00 C 1155.70 772.80 1157.73 779.99 1155.53 786.62 C 1151.65 793.43 1145.80 798.83 1140.62 804.63 C 1121.51 824.51 1101.50 843.50 1082.36 863.35 C 1063.59 885.52 1041.57 904.61 1022.21 926.23 C 1020.44 927.78 1018.85 930.30 1016.17 930.04 C 1009.26 924.60 1003.51 917.87 997.24 911.76 C 974.85 889.15 952.08 866.91 929.85 844.15 C 914.71 826.67 898.16 810.51 881.65 794.35 C 876.57 789.59 871.57 783.42 872.17 776.00 C 871.64 727.67 872.23 679.32 871.99 630.99 C 871.94 616.94 870.11 602.90 866.30 589.38 Z" />
<path fill="#8c2f39" opacity="1.00" d=" M 1197.22 589.34 C 1257.48 588.47 1317.75 589.39 1378.01 588.86 C 1384.09 589.10 1391.58 587.54 1396.16 592.83 C 1420.48 616.49 1444.01 640.98 1468.33 664.66 C 1477.40 673.54 1491.95 680.82 1489.94 695.96 C 1490.10 764.31 1489.99 832.66 1489.92 901.02 C 1489.13 912.68 1493.15 923.79 1495.28 935.09 C 1462.82 936.57 1430.21 936.60 1397.76 935.15 C 1396.93 918.97 1401.60 903.17 1401.03 887.01 C 1400.79 842.06 1401.43 797.10 1400.68 752.16 C 1399.54 736.04 1399.96 717.53 1388.23 704.79 C 1377.25 693.15 1363.30 680.49 1346.03 682.00 C 1295.92 681.89 1245.81 682.12 1195.71 681.95 C 1200.56 651.30 1199.49 620.17 1197.22 589.34 Z" />
<path fill="#8c2f39" opacity="1.00" d=" M 1194.08 719.26 C 1225.23 716.65 1256.59 718.33 1287.83 718.24 C 1284.38 761.73 1286.62 805.42 1286.01 849.00 C 1286.77 877.98 1283.26 907.47 1290.18 935.96 C 1258.70 935.61 1227.18 936.97 1195.74 935.17 C 1196.18 919.06 1199.54 903.17 1199.06 887.01 C 1198.71 841.33 1200.01 795.62 1197.20 750.00 C 1197.48 739.63 1195.28 729.49 1194.08 719.26 Z" />
</g>
</svg>
