<?xml version="1.0" encoding="UTF-8" ?>
<!DOCTYPE svg PUBLIC "-//W3C//DTD SVG 1.1//EN" "http://www.w3.org/Graphics/SVG/1.1/DTD/svg11.dtd">
<svg width="730pt" height="474pt" viewBox="0 0 730 474" version="1.1" xmlns="http://www.w3.org/2000/svg">
<g id="#ffffffff">
</g>
<g id="#292929ff">
<path fill="#292929" opacity="1.00" d=" M 323.86 17.84 C 341.27 12.06 359.71 9.30 378.04 10.02 C 403.47 11.63 428.95 18.55 450.44 32.53 C 458.91 37.86 466.59 44.32 474.20 50.78 C 484.33 61.30 493.34 72.98 500.12 85.95 C 517.41 117.03 522.53 154.65 514.25 189.23 C 509.17 211.27 499.12 232.24 484.68 249.67 C 481.57 252.98 478.60 256.51 474.90 259.17 C 472.90 259.12 471.67 256.94 470.19 255.79 C 463.88 248.98 456.77 242.93 450.75 235.88 C 451.46 232.43 454.47 230.20 456.59 227.60 C 475.06 206.47 483.25 177.69 481.94 149.94 C 480.55 129.06 474.02 108.29 461.77 91.20 C 448.13 71.91 427.79 57.80 405.35 50.70 C 395.23 47.52 384.62 45.67 373.99 45.97 C 343.99 45.00 313.37 56.69 292.74 78.74 C 268.53 101.64 257.81 136.68 261.58 169.41 C 264.03 187.48 270.37 205.16 280.88 220.13 C 284.43 225.23 289.06 229.45 292.69 234.49 C 293.81 235.62 292.48 236.84 291.77 237.71 C 286.14 243.75 279.73 249.07 274.63 255.60 C 273.21 257.25 271.86 259.11 269.89 260.13 C 268.32 260.36 267.33 258.63 266.19 257.81 C 244.69 234.88 229.44 205.41 226.20 173.91 C 225.68 165.20 224.09 156.44 225.55 147.72 C 226.13 133.46 228.89 119.26 233.86 105.87 C 236.98 97.11 241.43 88.91 245.70 80.68 C 263.06 51.20 291.72 29.08 323.86 17.84 Z" />
<path fill="#292929" opacity="1.00" d=" M 361.70 69.56 C 387.16 66.25 413.51 75.40 432.26 92.73 C 445.24 105.58 453.99 122.42 457.75 140.24 C 461.15 159.93 457.92 180.81 448.49 198.46 C 444.54 205.25 439.65 211.59 434.10 217.13 C 428.12 212.79 422.95 207.48 417.37 202.67 C 414.41 199.89 411.15 197.30 408.89 193.89 C 408.94 192.11 410.68 190.97 411.58 189.57 C 421.41 177.95 426.10 161.89 423.16 146.87 C 421.43 136.18 416.29 126.05 408.30 118.70 C 390.28 99.91 357.73 99.61 338.20 116.20 C 328.21 124.22 321.78 136.37 320.11 149.00 C 319.90 156.38 319.27 164.06 321.92 171.12 C 323.47 175.33 325.49 179.38 327.84 183.20 C 329.94 186.71 333.33 189.27 335.16 192.96 C 331.81 197.30 327.47 200.75 323.78 204.78 C 319.38 209.11 316.05 214.54 310.96 218.13 C 308.00 216.09 305.97 213.04 303.67 210.34 C 292.61 197.85 286.51 181.52 284.78 165.06 C 283.70 158.73 283.71 152.26 284.78 145.94 C 287.90 116.52 307.44 89.58 334.29 77.25 C 342.71 72.63 352.31 70.97 361.70 69.56 Z" />
<path fill="#292929" opacity="1.00" d=" M 348.95 217.15 C 363.97 216.85 379.03 216.90 394.06 217.15 C 393.87 221.11 392.95 225.00 392.98 228.98 C 393.03 275.98 392.99 322.99 393.00 370.00 C 393.10 374.21 392.58 378.48 393.36 382.64 C 395.12 386.33 398.44 388.90 401.35 391.65 C 410.36 398.96 417.78 407.99 426.67 415.43 C 427.42 419.23 426.94 423.15 427.02 427.00 C 426.85 433.97 427.30 440.97 426.85 447.94 C 419.92 448.48 412.95 448.00 406.01 448.11 C 401.82 447.96 397.56 448.44 393.43 447.67 C 389.75 445.01 387.09 441.26 384.11 437.89 C 380.69 433.97 376.73 430.56 373.38 426.58 C 367.65 419.67 360.84 413.78 354.80 407.17 C 353.15 405.05 350.84 402.96 351.00 400.04 C 350.98 344.01 350.97 287.98 350.98 231.95 C 350.89 226.94 349.24 222.13 348.95 217.15 Z" />
<path fill="#292929" opacity="1.00" d=" M 27.01 221.09 C 57.69 220.72 88.38 221.22 119.06 220.86 C 120.45 220.97 122.08 220.77 123.24 221.73 C 134.12 230.45 142.90 241.46 153.66 250.32 C 157.52 253.79 161.02 257.64 164.81 261.19 C 166.07 262.63 168.05 263.89 167.96 266.04 C 168.22 307.69 167.98 349.35 168.02 391.00 C 167.92 394.86 168.44 398.80 167.63 402.61 C 166.09 405.31 163.88 407.54 161.70 409.74 C 149.99 421.70 137.26 432.61 125.85 444.87 C 123.94 446.74 122.10 449.44 119.05 449.01 C 88.39 448.94 57.72 449.11 27.06 448.92 C 27.98 443.95 29.98 439.17 30.00 434.06 C 29.96 387.69 29.95 341.31 30.02 294.95 C 30.13 290.12 27.64 285.81 26.88 281.14 C 41.88 280.93 56.92 280.81 71.92 281.21 C 73.17 285.36 72.10 289.69 72.38 293.94 C 72.57 297.29 73.05 300.62 73.03 303.99 C 72.97 333.32 73.02 362.66 73.00 392.00 C 73.04 396.24 72.77 400.50 73.20 404.73 C 78.13 405.05 83.07 404.71 88.00 404.79 C 94.20 404.72 100.54 405.20 106.60 403.58 C 110.42 402.03 112.74 398.38 115.77 395.76 C 118.40 393.07 122.24 391.34 123.67 387.65 C 125.47 383.33 124.98 378.56 125.02 374.00 C 124.91 345.65 125.01 317.30 124.99 288.96 C 124.93 283.51 122.29 278.34 118.29 274.71 C 113.63 270.26 108.81 264.71 101.91 264.29 C 76.97 263.96 52.01 264.39 27.08 263.94 C 28.00 258.97 29.69 254.12 29.86 249.03 C 29.99 244.01 30.10 238.98 29.96 233.96 C 29.83 229.51 28.01 225.37 27.01 221.09 Z" />
<path fill="#292929" opacity="1.00" d=" M 215.69 295.69 C 220.35 291.06 224.29 285.24 230.20 282.18 C 251.12 281.70 272.09 282.21 293.02 281.94 C 295.52 282.08 298.58 281.43 300.34 283.67 C 309.62 293.06 318.90 302.44 328.26 311.74 C 330.42 313.93 332.84 315.91 334.66 318.41 C 335.50 323.56 334.82 328.81 334.99 334.00 C 334.82 339.55 335.46 345.16 334.71 350.68 C 331.75 356.11 326.29 359.64 322.29 364.28 C 314.68 371.37 308.39 379.71 300.74 386.75 C 298.72 388.77 295.57 388.01 293.00 388.24 C 277.66 387.90 262.31 388.42 246.98 388.01 C 246.31 377.02 246.99 365.98 246.65 354.98 C 246.45 351.03 245.73 347.09 246.06 343.13 C 258.01 342.73 269.99 343.10 281.95 342.83 C 285.09 342.86 287.25 340.29 289.00 338.02 C 291.35 334.98 293.81 331.91 295.09 328.24 C 278.38 327.67 261.65 328.21 244.94 327.95 C 239.57 327.38 235.57 331.66 232.26 335.25 C 230.71 336.72 231.09 339.02 230.95 340.95 C 231.07 356.65 231.04 372.36 230.96 388.07 C 231.09 389.96 230.77 392.25 232.35 393.66 C 235.28 396.72 238.28 399.72 241.36 402.64 C 242.76 404.23 245.03 403.93 246.94 404.05 C 274.64 403.91 302.34 404.07 330.05 403.95 C 331.53 403.99 333.07 403.96 334.47 404.53 C 335.63 408.90 334.80 413.52 335.00 418.00 C 335.22 427.98 334.38 438.01 335.76 447.93 C 301.16 448.31 266.55 448.07 231.95 448.12 C 227.47 448.71 225.13 444.33 222.23 441.77 C 216.02 435.95 210.93 429.10 204.73 423.28 C 199.43 417.54 192.70 413.12 188.36 406.53 C 187.27 403.17 188.07 399.49 187.94 396.01 C 188.00 372.99 188.00 349.96 187.95 326.94 C 187.92 325.03 188.09 322.97 189.73 321.71 C 198.45 313.11 207.01 304.34 215.69 295.69 Z" />
<path fill="#292929" opacity="1.00" d=" M 416.10 283.07 C 431.35 283.00 446.62 282.84 461.86 283.14 C 462.24 308.10 461.82 333.08 462.05 358.03 C 461.98 361.16 463.87 363.90 466.40 365.57 C 473.24 370.26 479.39 376.04 484.16 382.85 C 485.29 384.40 486.41 386.01 487.97 387.18 C 492.14 383.97 495.34 379.71 499.34 376.31 C 503.95 372.30 508.79 368.36 512.19 363.22 C 514.49 359.62 515.04 355.21 515.04 351.03 C 514.96 333.34 515.01 315.65 515.02 297.96 C 515.12 292.83 513.53 287.93 512.28 283.03 C 527.78 282.98 543.29 282.96 558.79 283.03 C 557.00 288.87 554.83 294.75 554.98 300.96 C 555.02 325.66 555.00 350.36 555.00 375.05 C 555.21 378.24 552.56 380.44 550.73 382.69 C 540.38 393.35 529.61 403.60 519.39 414.40 C 511.21 424.17 501.42 432.42 492.94 441.92 C 491.43 443.51 490.24 445.61 488.10 446.42 C 479.92 439.12 472.62 430.88 464.74 423.26 C 456.71 414.96 448.06 407.24 440.62 398.39 C 434.31 391.68 427.66 385.31 421.23 378.73 C 418.74 376.52 418.71 373.08 418.80 370.03 C 418.95 353.68 418.79 337.34 418.83 321.00 C 418.68 308.33 419.95 295.36 416.10 283.07 Z" />
<path fill="#292929" opacity="1.00" d=" M 575.00 283.14 C 604.33 282.75 633.68 283.17 663.02 282.94 C 665.50 283.06 668.54 282.48 670.29 284.73 C 682.10 296.57 693.87 308.48 705.86 320.16 C 709.33 323.60 714.98 326.40 715.00 331.95 C 715.03 366.65 714.97 401.35 715.02 436.04 C 714.87 440.38 717.56 444.38 717.45 448.60 C 715.67 448.99 713.84 449.04 712.05 449.06 C 700.69 448.97 689.33 448.96 677.98 449.06 C 675.75 449.05 673.51 449.02 671.32 448.60 C 670.58 443.05 672.68 437.55 672.65 431.96 C 672.93 415.31 672.66 398.66 672.72 382.00 C 672.60 372.66 673.12 363.29 672.17 353.97 C 671.91 347.70 670.17 341.01 665.31 336.69 C 660.91 332.61 656.07 328.12 649.94 327.12 C 624.69 327.02 599.40 327.36 574.15 326.99 C 576.41 316.44 576.12 305.65 575.93 294.94 C 575.72 290.99 574.75 287.10 575.00 283.14 Z" />
<path fill="#292929" opacity="1.00" d=" M 573.53 345.40 C 578.63 344.53 583.84 345.13 588.99 345.00 C 598.71 345.11 608.44 344.77 618.15 345.13 C 618.03 349.44 616.90 353.66 616.96 357.98 C 617.05 384.00 616.99 410.03 616.99 436.05 C 617.02 440.42 618.76 444.53 619.17 448.86 C 610.12 449.24 601.05 448.88 592.00 449.00 C 586.09 448.83 580.14 449.48 574.28 448.60 C 573.84 443.04 575.91 437.62 575.79 432.05 C 575.73 417.70 575.73 403.35 575.79 389.00 C 576.24 377.97 574.93 367.00 574.95 355.97 C 574.88 352.39 573.41 348.98 573.53 345.40 Z" />
</g>
<g id="#ff0000ff">
<path fill="#ff0000" opacity="1.00" d=" M 365.38 129.42 C 373.70 127.82 383.40 129.06 389.39 135.62 C 395.23 140.58 397.83 148.40 397.89 155.88 C 397.04 162.65 394.33 169.52 389.17 174.17 C 382.92 179.32 374.17 182.19 366.20 179.88 C 358.02 177.98 350.56 172.21 347.91 164.06 C 341.75 150.39 350.84 132.73 365.38 129.42 Z" />
</g>
</svg>
