<svg xmlns="http://www.w3.org/2000/svg" xmlns:xlink="http://www.w3.org/1999/xlink" width="1810" height="884.98"><rect width="1810" height="884.98" rx="5" ry="5" class="a"/><svg y="0%" x="0%"><circle cx="20" cy="20" r="6" fill="#ff5f58"/><circle cx="40" cy="20" r="6" fill="#ffbd2e"/><circle cx="60" cy="20" r="6" fill="#18c132"/></svg><svg height="824.98" viewBox="0 0 177 82.498" width="1770" x="15" xmlns="http://www.w3.org/2000/svg" xmlns:xlink="http://www.w3.org/1999/xlink" y="50"><style>@keyframes h{0%{transform:translateX(0)}to{transform:translateX(-177px)}}.a{fill:#282d35}.j{fill:#b9c0cb;white-space:pre}</style><g font-family="Monaco,Consolas,Menlo,'Bitstream Vera Sans Mono','Powerline Symbols',monospace" font-size="1.67"><defs><symbol id="a"><path fill="transparent" d="M0 0h177v38H0z"/></symbol><symbol id="b"><path fill="#6f7683" d="M0 0h1.102v2.171H0z"/></symbol></defs><path class="a" d="M0 0h177v82.498H0z"/><g style="animation-duration:203.133397s;animation-iteration-count:infinite;animation-name:h;animation-timing-function:steps(1,end)"><svg width="354"><svg><use xlink:href="#a"/><use xlink:href="#b" x="-.004"/></svg><svg x="177"><use xlink:href="#a"/><use xlink:href="#b" x="-.004" y="15.172"/><text y="1.67" class="j">Demo</text><text x="5.01" y="1.67" class="j">pipeline</text><text x="14.028" y="1.67" class="j">complete.</text><text y="3.841" class="j">Collection:</text><text x="12.024" y="3.841" class="j">CVE</text><text x="16.032" y="3.841" class="j">stored=125,</text><text x="28.056" y="3.841" class="j">Intel</text><text x="34.068" y="3.841" class="j">stored=0,</text><text x="44.088" y="3.841" class="j">News</text><text x="49.098" y="3.841" class="j">stored=95</text><text y="6.012" class="j">Correlation:</text><text x="13.026" y="6.012" class="j">links_created=960,</text><text x="32.064" y="6.012" class="j">errors=0</text><text y="8.183" class="j">Prioritization:</text><text x="16.032" y="8.183" class="j">total=120,</text><text x="27.054" y="8.183" class="j">HIGH=0,</text><text x="35.07" y="8.183" class="j">MEDIUM=1,</text><text x="45.09" y="8.183" class="j">LOW=20,</text><text x="53.106" y="8.183" class="j">NONE=99</text><text y="10.354" class="j">Top</text><text x="4.008" y="10.354" class="j">headlines:</text><text y="12.525" class="j">-</text><text x="2.004" y="12.525" class="j">Copeland</text><text x="11.022" y="12.525" class="j">XWEB</text><text x="16.032" y="12.525" class="j">and</text><text x="20.04" y="12.525" class="j">XWEB</text><text x="25.05" y="12.525" class="j">Pro</text><text y="14.696" class="j">Brief</text><text x="6.012" y="14.696" class="j">written</text><text x="14.028" y="14.696" class="j">to:</text><text x="18.036" y="14.696" class="j">/home/ubuntu/workspace/ai-dev-days-hackathon/projects/delvn/docs/demo_brief.md</text></svg></svg></g></g></svg></svg>